<svg height="512pt" viewBox="0 -45 512.00038 512" width="512pt" xmlns="http://www.w3.org/2000/svg"><path d="m508.148438 93.84375c-5.894532-6.476562-15.929688-6.65625-22.050782-.535156l-66.699218 66.703125c-6.546876 6.542969-17.15625 6.542969-23.699219 0-6.542969-6.546875-6.542969-17.15625 0-23.699219l66.394531-66.394531c5.800781-5.800781 6.335938-15.246094.816406-21.3125-5.894531-6.476563-15.929687-6.65625-22.050781-.535157l-67.515625 67.515626c-6.09375 6.09375-15.976562 6.09375-22.070312 0s-6.09375-15.972657 0-22.066407l67.210937-67.210937c5.800781-5.800782 6.335937-15.246094.8125-21.3125-5.890625-6.476563-15.925781-6.65625-22.046875-.535156-.949219.949218 11.738281-11.738282-107.214844 107.210937-16.96875 16.980469-20.175781 42.890625-9.503906 63.234375l-179.386719 179.382812c-15.128906 15.128907-15.132812 39.761719.011719 54.921876 15.179688 15.144531 39.730469 15.160156 54.898438-.011719l178.855468-178.855469c20.296875 12.058594 47.472656 9.765625 65.523438-8.289062 12.277344-12.277344 111.015625-111.011719 106.898437-106.898438 5.800781-5.800781 6.335938-15.246094.816407-21.3125zm0 0" fill="#edf0f5"/><path d="m508.148438 93.84375c-5.894532-6.476562-15.929688-6.65625-22.050782-.535156l-66.699218 66.703125c-6.546876 6.542969-17.15625 6.542969-23.699219 0-6.542969-6.546875-6.542969-17.15625 0-23.699219l66.394531-66.394531c5.800781-5.800781 6.335938-15.246094.816406-21.3125l-361.753906 360.609375c15.179688 15.144531 39.730469 15.15625 54.898438-.015625l178.855468-178.855469c20.296875 12.058594 47.472656 9.765625 65.523438-8.289062 12.277344-12.277344 111.015625-111.011719 106.898437-106.898438 5.800781-5.800781 6.335938-15.246094.816407-21.3125zm0 0" fill="#d8dceb"/><path d="m320.375 244.875-164.316406 164.328125c-13.835938 13.839844-35.542969 15.246094-51.171875 3.292969 0 0 0-.011719-.007813-.011719-1.152344-.878906-2.480468-2.035156-3.71875-3.269531-15.148437-15.160156-15.148437-39.796875-.019531-54.929688l164.328125-164.316406c6.578125 6.578125 48.371094 48.367188 54.90625 54.90625zm0 0" fill="#dd7d00"/><path d="m293.242188 217.742188-192.082032 191.472656c1.226563 1.222656 2.558594 2.382812 3.71875 3.269531.007813 0 .007813.011719.007813.011719 15.730469 12.027344 37.476562 10.402344 51.171875-3.292969l164.316406-164.328125zm0 0" fill="#bb6a00"/><path d="m387.511719 355.238281-215.574219-215.574219c-5.949219-5.949218-15.59375-5.949218-21.542969 0l-33.367187 33.367188c-5.949219 5.949219-5.949219 15.59375 0 21.542969l215.574218 215.574219c15.140626 15.136718 39.769532 15.140624 54.910157 0 15.171875-15.171876 15.175781-39.734376 0-54.910157zm0 0" fill="#ffb655"/><path d="m133.710938 156.347656-16.683594 16.683594c-5.949219 5.949219-5.949219 15.59375 0 21.542969l215.574218 215.574219c15.140626 15.136718 39.769532 15.140624 54.910157 0zm0 0" fill="#ff9100"/><path d="m61.425781 211.296875c-41.386719-41.386719-86.011719-132.121094-45.445312-172.683594 40.464843-40.464843 131.09375 3.863281 172.675781 45.445313 44.863281 44.863281 43.828125 92.542968 4.570312 131.804687-41.949218 41.945313-89.863281 37.371094-131.800781-4.566406zm0 0" fill="#edf0f5"/><path d="m61.425781 211.296875c-41.386719-41.386719-86.011719-132.121094-45.445312-172.683594l177.246093 177.25c-41.949218 41.945313-89.863281 37.371094-131.800781-4.566406zm0 0" fill="#d8dceb"/><path d="m171.6875 194.320312c29.855469-29.875 25.527344-58.621093-4.570312-88.722656-19.527344-19.527344-48.195313-37.195312-74.8125-46.113281-25.378907-8.511719-45.859376-8.257813-54.785157.671875-11.789062 11.789062-5.960937 38.984375-.671875 54.773438 8.917969 26.628906 26.585938 55.292968 46.125 74.824218 30.28125 30.28125 59.03125 34.25 88.714844 4.566406zm0 0" fill="#d8dceb"/><path d="m171.6875 194.320312-134.167969-134.164062c-11.789062 11.789062-5.960937 38.984375-.671875 54.773438 8.917969 26.628906 26.585938 55.292968 46.125 74.824218 30.28125 30.28125 59.03125 34.25 88.714844 4.566406zm0 0" fill="#afb7cc"/></svg>